<svg width="31" height="39" viewBox="0 0 31 39" fill="none" xmlns="http://www.w3.org/2000/svg">
<path d="M24.369 5.44322H23.8355C23.645 3.90195 23.0924 2.67284 22.216 1.75588C21.0728 0.585293 19.4152 0 17.2812 0H6.64955C2.36259 0 0 2.41921 0 6.8089C0 8.994 0.571595 10.6913 1.71478 11.8619C2.85797 13.0325 4.51559 13.6178 6.64955 13.6178H17.2812C21.0918 13.6178 23.3782 11.6863 23.8355 8.17459H24.369C28.3511 8.17459 28.3511 8.72086 28.3511 12.2521V15.8809C28.3511 19.4122 28.3511 19.9585 24.369 19.9585H17.2812C11.5843 19.9585 10.765 22.7289 10.6507 25.4212C8.93592 25.5383 7.08777 26.3577 7.08777 29.4792V34.9225C7.08777 38.2976 9.25983 39 11.0699 39H12.8418C14.6519 39 16.8239 38.2976 16.8239 34.9225V29.4792C16.8239 26.3967 15.0139 25.5383 13.2991 25.4212C13.3944 23.4507 13.9469 22.6703 17.2621 22.6703H24.3499C30.5422 22.6703 30.9995 20.095 30.9995 15.8614V12.2521C31.0185 8.01851 30.5612 5.44322 24.369 5.44322Z" fill="url(#paint0_linear_1629_10135)"/>
<defs>
<linearGradient id="paint0_linear_1629_10135" x1="15.5" y1="4.21053e-07" x2="-1.54398" y2="45.5486" gradientUnits="userSpaceOnUse">
<stop stop-color="#B0D5FF"/>
<stop offset="1" stop-color="#3F97FF" stop-opacity="0.41"/>
</linearGradient>
</defs>
</svg>