<svg width="38" height="39" viewBox="0 0 38 39" fill="none" xmlns="http://www.w3.org/2000/svg">
<path d="M31.825 12.6867V16.6337C30.989 16.521 30.039 16.4646 28.975 16.4458V12.6867C28.975 6.76626 27.284 2.81928 19 2.81928C10.716 2.81928 9.025 6.76626 9.025 12.6867V16.4458C7.961 16.4646 7.011 16.521 6.175 16.6337V12.6867C6.175 7.23614 7.505 0 19 0C30.495 0 31.825 7.23614 31.825 12.6867Z" fill="url(#paint0_linear_1629_10055)"/>
<path d="M31.825 16.6337C30.989 16.521 30.039 16.4646 28.975 16.4458H9.025C7.961 16.4646 7.011 16.521 6.175 16.6337C1.33 17.2164 0 19.5658 0 25.8434V29.6024C0 37.1205 1.9 39 9.5 39H28.5C36.1 39 38 37.1205 38 29.6024V25.8434C38 19.5658 36.67 17.2164 31.825 16.6337ZM12.749 29.0573C12.388 29.3957 11.894 29.6024 11.4 29.6024C11.153 29.6024 10.906 29.546 10.678 29.452C10.431 29.3581 10.241 29.2265 10.051 29.0573C9.709 28.7002 9.5 28.2116 9.5 27.7229C9.5 27.4786 9.557 27.2342 9.652 27.0087C9.747 26.7831 9.88 26.5764 10.051 26.3884C10.241 26.2193 10.431 26.0877 10.678 25.9937C11.381 25.693 12.217 25.8622 12.749 26.3884C12.92 26.5764 13.053 26.7831 13.148 27.0087C13.243 27.2342 13.3 27.4786 13.3 27.7229C13.3 28.2116 13.091 28.7002 12.749 29.0573ZM20.748 28.4371C20.653 28.6626 20.52 28.8694 20.349 29.0573C19.988 29.3957 19.494 29.6024 19 29.6024C18.487 29.6024 18.012 29.3957 17.651 29.0573C17.48 28.8694 17.347 28.6626 17.252 28.4371C17.157 28.2116 17.1 27.9672 17.1 27.7229C17.1 27.2154 17.309 26.7455 17.651 26.3884C18.354 25.693 19.627 25.693 20.349 26.3884C20.691 26.7455 20.9 27.2154 20.9 27.7229C20.9 27.9672 20.843 28.2116 20.748 28.4371ZM27.949 29.0573C27.588 29.3957 27.094 29.6024 26.6 29.6024C26.106 29.6024 25.612 29.3957 25.251 29.0573C24.909 28.7002 24.7 28.2304 24.7 27.7229C24.7 27.2154 24.909 26.7455 25.251 26.3884C25.973 25.693 27.246 25.693 27.949 26.3884C28.025 26.4824 28.101 26.5764 28.177 26.6892C28.253 26.7831 28.31 26.8959 28.348 27.0087C28.405 27.1214 28.443 27.2342 28.462 27.347C28.481 27.4786 28.5 27.6101 28.5 27.7229C28.5 28.2116 28.291 28.7002 27.949 29.0573Z" fill="url(#paint1_linear_1629_10055)"/>
<defs>
<linearGradient id="paint0_linear_1629_10055" x1="19" y1="4.21053e-07" x2="4.5" y2="47.5" gradientUnits="userSpaceOnUse">
<stop stop-color="#B0D5FF"/>
<stop offset="1" stop-color="#3F97FF" stop-opacity="0.41"/>
</linearGradient>
<linearGradient id="paint1_linear_1629_10055" x1="19" y1="4.21053e-07" x2="4.5" y2="47.5" gradientUnits="userSpaceOnUse">
<stop stop-color="#B0D5FF"/>
<stop offset="1" stop-color="#3F97FF" stop-opacity="0.41"/>
</linearGradient>
</defs>
</svg>