<svg width="35" height="36" viewBox="0 0 35 36" fill="none" xmlns="http://www.w3.org/2000/svg">
<path d="M15.6579 32.22V3.78C15.6579 1.08 14.4789 0 11.55 0H4.10789C1.17895 0 0 1.08 0 3.78V32.22C0 34.92 1.17895 36 4.10789 36H11.55C14.4789 36 15.6579 34.92 15.6579 32.22Z" fill="url(#paint0_linear_4879_14387)"/>
<path d="M35 31.752V24.048C35 21.708 33.1579 19.8 30.8921 19.8H23.45C21.1842 19.8 19.3421 21.708 19.3421 24.048V31.752C19.3421 34.092 21.1842 36 23.45 36H30.8921C33.1579 36 35 34.092 35 31.752Z" fill="url(#paint1_linear_4879_14387)"/>
<path d="M35 11.952V4.248C35 1.908 33.1579 0 30.8921 0H23.45C21.1842 0 19.3421 1.908 19.3421 4.248V11.952C19.3421 14.292 21.1842 16.2 23.45 16.2H30.8921C33.1579 16.2 35 14.292 35 11.952Z" fill="url(#paint2_linear_4879_14387)"/>
<defs>
<linearGradient id="paint0_linear_4879_14387" x1="17.5" y1="3.88665e-07" x2="4.091" y2="43.8297" gradientUnits="userSpaceOnUse">
<stop stop-color="#B0D5FF"/>
<stop offset="1" stop-color="#3F97FF" stop-opacity="0.41"/>
</linearGradient>
<linearGradient id="paint1_linear_4879_14387" x1="17.5" y1="3.88665e-07" x2="4.091" y2="43.8297" gradientUnits="userSpaceOnUse">
<stop stop-color="#B0D5FF"/>
<stop offset="1" stop-color="#3F97FF" stop-opacity="0.41"/>
</linearGradient>
<linearGradient id="paint2_linear_4879_14387" x1="17.5" y1="3.88665e-07" x2="4.091" y2="43.8297" gradientUnits="userSpaceOnUse">
<stop stop-color="#B0D5FF"/>
<stop offset="1" stop-color="#3F97FF" stop-opacity="0.41"/>
</linearGradient>
</defs>
</svg>